<?xml version="1.0" encoding="UTF-8" standalone="no"?><svg xmlns="http://www.w3.org/2000/svg" xmlns:xlink="http://www.w3.org/1999/xlink" contentScriptType="text/ecmascript" fill="#000000" fill-rule="evenodd" zoomAndPan="magnify" contentStyleType="text/css" viewBox="0 0 561 734" preserveAspectRatio="xMidYMid meet" clip-rule="evenodd" stroke-miterlimit="10" version="1"><g><g><g><path fill="none" stroke-width="0.3" d="M146.982 448.039H180.435V531.671H146.982z" transform="matrix(1,0,0,1,-143.820725,-294.176725) matrix(1.333333,0,0,1.333333,0,0) matrix(-1,0,0,1,327.417,-137.82)" stroke="#221815"/></g><g><path fill="none" stroke-width="0.3" d="M176.293 563.98H193.019V589.648H176.293z" transform="matrix(1,0,0,1,-143.820725,-294.176725) matrix(1.333333,0,0,1.333333,0,0) matrix(-1,0,0,1,369.312,-311.738)" stroke="#221815"/></g><g><path fill="none" stroke-width="0.1" d="M176.293 589.648H193.019V619.734H176.293z" transform="matrix(1,0,0,1,-143.820725,-294.176725) matrix(1.333333,0,0,1.333333,0,0) matrix(-1,0,0,1,369.312,-367.492)" stroke="#221815"/></g><g><path fill="none" stroke-width="0.3" d="M157.894 563.98H176.293V619.734H157.894z" transform="matrix(1,0,0,1,-143.820725,-294.176725) matrix(1.333333,0,0,1.333333,0,0) matrix(-1,0,0,1,334.187,-341.824)" stroke="#221815"/></g><g><path fill="none" stroke-width="0.3" d="M109.387 563.98H193.019V619.734H109.387z" transform="matrix(1,0,0,1,-143.820725,-294.176725) matrix(1.333333,0,0,1.333333,0,0) matrix(-1,0,0,1,302.406,-341.824)" stroke="#221815"/></g><g><path fill="none" stroke-width="0.3" d="M193.019 563.98H526.975V619.734H193.019z" transform="matrix(1,0,0,1,-143.820725,-294.176725) matrix(1.333333,0,0,1.333333,0,0) matrix(-1,0,0,1,719.994,-341.824)" stroke="#221815"/></g><g><path fill="none" stroke-width="0.3" d="M193.019 589.648H226.476V619.755H193.019z" transform="matrix(1,0,0,1,-143.820725,-294.176725) matrix(1.333333,0,0,1.333333,0,0) matrix(-1,0,0,1,419.495,-367.513)" stroke="#221815"/></g><g><path fill="none" stroke-width="0.3" d="M476.796 563.98H493.522V580.706H476.796z" transform="matrix(1,0,0,1,-143.820725,-294.176725) matrix(1.333333,0,0,1.333333,0,0) matrix(-1,0,0,1,970.318,-302.796)" stroke="#221815"/></g><g><path fill="none" stroke-width="0.3" d="M493.522 563.98H526.975V580.706H493.522z" transform="matrix(1,0,0,1,-143.820725,-294.176725) matrix(1.333333,0,0,1.333333,0,0) matrix(-1,0,0,1,1020.497,-302.796)" stroke="#221815"/></g><g><path fill="none" stroke-width="0.3" d="M109.383 258.47H167.925V330.951H109.383z" transform="matrix(1,0,0,1,-143.820725,-294.176725) matrix(1.333333,0,0,1.333333,0,0) matrix(-1,0,0,1,277.308,252.469)" stroke="#221815"/></g><g><path fill="none" stroke-width="0.3" d="M334.871 194.327H385.04999999999995V213.841H334.871z" transform="matrix(1,0,0,1,-143.820725,-294.176725) matrix(1.333333,0,0,1.333333,0,0) matrix(-1,0,0,1,719.921,433.722)" stroke="#221815"/></g><g><path fill="none" stroke-width="0.3" d="M334.871 213.841H385.04999999999995V230.567H334.871z" transform="matrix(1,0,0,1,-143.820725,-294.176725) matrix(1.333333,0,0,1.333333,0,0) matrix(-1,0,0,1,719.921,397.482)" stroke="#221815"/></g><g><path fill="none" stroke-width="0.3" d="M251.236 197.124H301.41499999999996V213.85H251.236z" transform="matrix(1,0,0,1,-143.820725,-294.176725) matrix(1.333333,0,0,1.333333,0,0) matrix(-1,0,0,1,552.651,430.916)" stroke="#221815"/></g><g><path fill="none" stroke-width="0.3" d="M334.871 381.134H385.04999999999995V397.86H334.871z" transform="matrix(1,0,0,1,-143.820725,-294.176725) matrix(1.333333,0,0,1.333333,0,0) matrix(-1,0,0,1,719.921,62.896)" stroke="#221815"/></g><g><path fill="none" stroke-width="0.3" d="M201.057 397.86H251.236V414.586H201.057z" transform="matrix(1,0,0,1,-143.820725,-294.176725) matrix(1.333333,0,0,1.333333,0,0) matrix(-1,0,0,1,452.293,29.444)" stroke="#221815"/></g><g><path fill="none" stroke-width="0.3" d="M334.871 514.945H385.04999999999995V531.671H334.871z" transform="matrix(1,0,0,1,-143.820725,-294.176725) matrix(1.333333,0,0,1.333333,0,0) matrix(-1,0,0,1,719.921,-204.726)" stroke="#221815"/></g><g><path fill="none" stroke-width="0.3" d="M472.821 381.134H489.547V431.313H472.821z" transform="matrix(1,0,0,1,-143.820725,-294.176725) matrix(1.333333,0,0,1.333333,0,0) matrix(1,0,0,1,0,29.443)" stroke="#221815"/></g><g><path fill="none" stroke-width="0.3" d="M510.192 453.6H526.918V503.779H510.192z" transform="matrix(1,0,0,1,-143.820725,-294.176725) matrix(1.333333,0,0,1.333333,0,0) matrix(-1,0,0,1,1037.11,-115.489)" stroke="#221815"/></g><g><path fill="none" stroke-width="0.3" d="M201.057 197.124H251.236V213.85H201.057z" transform="matrix(1,0,0,1,-143.820725,-294.176725) matrix(1.333333,0,0,1.333333,0,0) matrix(-1,0,0,1,452.293,430.916)" stroke="#221815"/></g><g><path fill="none" stroke-width="0.3" d="M334.871 297.494H385.04999999999995V330.947H334.871z" transform="matrix(1,0,0,1,-143.820725,-294.176725) matrix(1.333333,0,0,1.333333,0,0) matrix(1,0,0,1,0,213.449)" stroke="#221815"/></g><g><path fill="none" stroke-width="0.3" d="M385.05 297.494H435.22900000000004V330.947H385.05z" transform="matrix(1,0,0,1,-143.820725,-294.176725) matrix(1.333333,0,0,1.333333,0,0) matrix(1,0,0,1,0,213.449)" stroke="#221815"/></g><g><path fill="none" stroke-width="0.3" d="M201.057 297.494H251.236V330.947H201.057z" transform="matrix(1,0,0,1,-143.820725,-294.176725) matrix(1.333333,0,0,1.333333,0,0) matrix(1,0,0,1,0,213.449)" stroke="#221815"/></g><g><path fill="none" stroke-width="0.3" d="M251.236 297.494H301.41499999999996V330.947H251.236z" transform="matrix(1,0,0,1,-143.820725,-294.176725) matrix(1.333333,0,0,1.333333,0,0) matrix(1,0,0,1,0,213.449)" stroke="#221815"/></g><g><path fill="none" stroke-width="0.3" d="M201.057 364.408H251.236V397.861H201.057z" transform="matrix(1,0,0,1,-143.820725,-294.176725) matrix(1.333333,0,0,1.333333,0,0) matrix(1,0,0,1,0,79.621)" stroke="#221815"/></g><g><path fill="none" stroke-width="0.3" d="M251.236 364.408H301.41499999999996V397.861H251.236z" transform="matrix(1,0,0,1,-143.820725,-294.176725) matrix(1.333333,0,0,1.333333,0,0) matrix(1,0,0,1,0,79.621)" stroke="#221815"/></g><g><path fill="none" stroke-width="0.3" d="M478.142 150.355H494.868V167.081H478.142z" transform="matrix(1,0,0,1,-143.820725,-294.176725) matrix(1.333333,0,0,1.333333,0,0) matrix(-1,0,0,1,973.01,524.454)" stroke="#221815"/></g><g><path fill="none" stroke-width="0.3" d="M478.142 167.081H494.868V183.807H478.142z" transform="matrix(1,0,0,1,-143.820725,-294.176725) matrix(1.333333,0,0,1.333333,0,0) matrix(-1,0,0,1,973.01,491.002)" stroke="#221815"/></g><g><path fill="none" stroke-width="0.3" d="M478.142 183.808H494.868V200.534H478.142z" transform="matrix(1,0,0,1,-143.820725,-294.176725) matrix(1.333333,0,0,1.333333,0,0) matrix(-1,0,0,1,973.01,457.548)" stroke="#221815"/></g><g><path fill="none" stroke-width="0.3" d="M385.051 194.327H401.777V213.841H385.051z" transform="matrix(1,0,0,1,-143.820725,-294.176725) matrix(1.333333,0,0,1.333333,0,0) matrix(-1,0,0,1,786.828,433.722)" stroke="#221815"/></g><g><path fill="none" stroke-width="0.3" d="M385.051 213.841H401.777V230.567H385.051z" transform="matrix(1,0,0,1,-143.820725,-294.176725) matrix(1.333333,0,0,1.333333,0,0) matrix(-1,0,0,1,786.828,397.482)" stroke="#221815"/></g><g><path fill="none" stroke-width="0.3" d="M368.324 247.327H385.05V264.053H368.324z" transform="matrix(1,0,0,1,-143.820725,-294.176725) matrix(1.333333,0,0,1.333333,0,0) matrix(-1,0,0,1,753.374,330.51)" stroke="#221815"/></g><g><path fill="none" stroke-width="0.3" d="M401.777 264.053H418.503V280.779H401.777z" transform="matrix(1,0,0,1,-143.820725,-294.176725) matrix(1.333333,0,0,1.333333,0,0) matrix(-1,0,0,1,820.28,297.058)" stroke="#221815"/></g><g><path fill="none" stroke-width="0.3" d="M385.051 381.134H401.777V397.86H385.051z" transform="matrix(1,0,0,1,-143.820725,-294.176725) matrix(1.333333,0,0,1.333333,0,0) matrix(-1,0,0,1,786.828,62.896)" stroke="#221815"/></g><g><path fill="none" stroke-width="0.3" d="M472.821 364.408H489.547V381.134H472.821z" transform="matrix(1,0,0,1,-143.820725,-294.176725) matrix(1.333333,0,0,1.333333,0,0) matrix(-1,0,0,1,962.368,96.348)" stroke="#221815"/></g><g><path fill="none" stroke-width="0.3" d="M456.095 431.313H472.821V448.039H456.095z" transform="matrix(1,0,0,1,-143.820725,-294.176725) matrix(1.333333,0,0,1.333333,0,0) matrix(-1,0,0,1,928.916,-37.462)" stroke="#221815"/></g><g><path fill="none" stroke-width="0.3" d="M472.821 431.313H489.547V448.039H472.821z" transform="matrix(1,0,0,1,-143.820725,-294.176725) matrix(1.333333,0,0,1.333333,0,0) matrix(-1,0,0,1,962.368,-37.462)" stroke="#221815"/></g><g><path fill="none" stroke-width="0.3" d="M368.324 431.301H385.05V448.027H368.324z" transform="matrix(1,0,0,1,-143.820725,-294.176725) matrix(1.333333,0,0,1.333333,0,0) matrix(-1,0,0,1,753.374,-37.438)" stroke="#221815"/></g><g><path fill="none" stroke-width="0.3" d="M251.236 397.86H267.962V414.586H251.236z" transform="matrix(1,0,0,1,-143.820725,-294.176725) matrix(1.333333,0,0,1.333333,0,0) matrix(-1,0,0,1,519.198,29.444)" stroke="#221815"/></g><g><path fill="none" stroke-width="0.3" d="M146.987 364.408H163.713V381.134H146.987z" transform="matrix(1,0,0,1,-143.820725,-294.176725) matrix(1.333333,0,0,1.333333,0,0) matrix(-1,0,0,1,310.7,96.348)" stroke="#221815"/></g><g><path fill="none" stroke-width="0.3" d="M146.987 381.134H163.713V397.86H146.987z" transform="matrix(1,0,0,1,-143.820725,-294.176725) matrix(1.333333,0,0,1.333333,0,0) matrix(-1,0,0,1,310.7,62.896)" stroke="#221815"/></g><g><path fill="none" stroke-width="0.3" d="M109.368 364.408H126.094V381.134H109.368z" transform="matrix(1,0,0,1,-143.820725,-294.176725) matrix(1.333333,0,0,1.333333,0,0) matrix(-1,0,0,1,235.462,96.348)" stroke="#221815"/></g><g><path fill="none" stroke-width="0.3" d="M109.368 381.134H126.094V397.86H109.368z" transform="matrix(1,0,0,1,-143.820725,-294.176725) matrix(1.333333,0,0,1.333333,0,0) matrix(-1,0,0,1,235.462,62.896)" stroke="#221815"/></g><g><path fill="none" stroke-width="0.3" d="M163.713 397.86H180.439V414.586H163.713z" transform="matrix(1,0,0,1,-143.820725,-294.176725) matrix(1.333333,0,0,1.333333,0,0) matrix(-1,0,0,1,344.152,29.444)" stroke="#221815"/></g><g><path fill="none" stroke-width="0.3" d="M146.987 397.86H163.713V414.586H146.987z" transform="matrix(1,0,0,1,-143.820725,-294.176725) matrix(1.333333,0,0,1.333333,0,0) matrix(-1,0,0,1,310.7,29.444)" stroke="#221815"/></g><g><path fill="none" stroke-width="0.3" d="M109.368 439.676H126.094V456.402H109.368z" transform="matrix(1,0,0,1,-143.820725,-294.176725) matrix(1.333333,0,0,1.333333,0,0) matrix(-1,0,0,1,235.462,-54.188)" stroke="#221815"/></g><g><path fill="none" stroke-width="0.3" d="M109.368 489.855H126.094V506.581H109.368z" transform="matrix(1,0,0,1,-143.820725,-294.176725) matrix(1.333333,0,0,1.333333,0,0) matrix(-1,0,0,1,235.462,-154.546)" stroke="#221815"/></g><g><path fill="none" stroke-width="0.3" d="M163.713 414.587H180.439V431.313H163.713z" transform="matrix(1,0,0,1,-143.820725,-294.176725) matrix(1.333333,0,0,1.333333,0,0) matrix(-1,0,0,1,344.152,-4.01)" stroke="#221815"/></g><g><path fill="none" stroke-width="0.3" d="M146.987 414.587H163.713V431.313H146.987z" transform="matrix(1,0,0,1,-143.820725,-294.176725) matrix(1.333333,0,0,1.333333,0,0) matrix(-1,0,0,1,310.7,-4.01)" stroke="#221815"/></g><g><path fill="none" stroke-width="0.3" d="M240.084 431.286H256.81V448.012H240.084z" transform="matrix(1,0,0,1,-143.820725,-294.176725) matrix(1.333333,0,0,1.333333,0,0) matrix(-1,0,0,1,496.894,-37.408)" stroke="#221815"/></g><g><path fill="none" stroke-width="0.3" d="M223.357 431.286H240.083V448.012H223.357z" transform="matrix(1,0,0,1,-143.820725,-294.176725) matrix(1.333333,0,0,1.333333,0,0) matrix(-1,0,0,1,463.44,-37.408)" stroke="#221815"/></g><g><path fill="none" stroke-width="0.3" d="M223.356 498.215H240.082V514.941H223.356z" transform="matrix(1,0,0,1,-143.820725,-294.176725) matrix(1.333333,0,0,1.333333,0,0) matrix(-1,0,0,1,463.438,-171.266)" stroke="#221815"/></g><g><path fill="none" stroke-width="0.3" d="M273.536 498.215H290.262V514.941H273.536z" transform="matrix(1,0,0,1,-143.820725,-294.176725) matrix(1.333333,0,0,1.333333,0,0) matrix(-1,0,0,1,563.798,-171.266)" stroke="#221815"/></g><g><path fill="none" stroke-width="0.3" d="M206.63 498.215H223.356V514.941H206.63z" transform="matrix(1,0,0,1,-143.820725,-294.176725) matrix(1.333333,0,0,1.333333,0,0) matrix(-1,0,0,1,429.986,-171.266)" stroke="#221815"/></g><g><path fill="none" stroke-width="0.3" d="M206.631 431.286H223.357V448.012H206.631z" transform="matrix(1,0,0,1,-143.820725,-294.176725) matrix(1.333333,0,0,1.333333,0,0) matrix(-1,0,0,1,429.988,-37.408)" stroke="#221815"/></g><g><path fill="none" stroke-width="0.3" d="M206.631 448.012H223.357V464.738H206.631z" transform="matrix(1,0,0,1,-143.820725,-294.176725) matrix(1.333333,0,0,1.333333,0,0) matrix(-1,0,0,1,429.988,-70.86)" stroke="#221815"/></g><g><path fill="none" stroke-width="0.3" d="M385.051 431.301H401.777V448.027H385.051z" transform="matrix(1,0,0,1,-143.820725,-294.176725) matrix(1.333333,0,0,1.333333,0,0) matrix(-1,0,0,1,786.828,-37.438)" stroke="#221815"/></g><g><path fill="none" stroke-width="0.3" d="M418.503 264.053H435.229V280.779H418.503z" transform="matrix(1,0,0,1,-143.820725,-294.176725) matrix(1.333333,0,0,1.333333,0,0) matrix(-1,0,0,1,853.732,297.058)" stroke="#221815"/></g><g><path fill="none" stroke-width="0.3" d="M385.051 247.327H401.777V264.053H385.051z" transform="matrix(1,0,0,1,-143.820725,-294.176725) matrix(1.333333,0,0,1.333333,0,0) matrix(-1,0,0,1,786.828,330.51)" stroke="#221815"/></g><g><path fill="none" stroke-width="0.3" d="M401.777 247.327H418.503V264.053H401.777z" transform="matrix(1,0,0,1,-143.820725,-294.176725) matrix(1.333333,0,0,1.333333,0,0) matrix(-1,0,0,1,820.28,330.51)" stroke="#221815"/></g><g><path fill="none" stroke-width="0.3" d="M418.503 247.327H435.229V264.053H418.503z" transform="matrix(1,0,0,1,-143.820725,-294.176725) matrix(1.333333,0,0,1.333333,0,0) matrix(-1,0,0,1,853.732,330.51)" stroke="#221815"/></g><g><path fill="none" stroke-width="0.3" d="M201.057 213.85H217.783V230.576H201.057z" transform="matrix(1,0,0,1,-143.820725,-294.176725) matrix(1.333333,0,0,1.333333,0,0) matrix(-1,0,0,1,418.84,397.464)" stroke="#221815"/></g><g><path fill="none" stroke-width="0.3" d="M217.783 213.85H234.509V230.576H217.783z" transform="matrix(1,0,0,1,-143.820725,-294.176725) matrix(1.333333,0,0,1.333333,0,0) matrix(-1,0,0,1,452.292,397.464)" stroke="#221815"/></g><g><path fill="none" stroke-width="0.3" d="M284.689 264.053H301.415V280.779H284.689z" transform="matrix(1,0,0,1,-143.820725,-294.176725) matrix(1.333333,0,0,1.333333,0,0) matrix(-1,0,0,1,586.104,297.058)" stroke="#221815"/></g><g><path fill="none" stroke-width="0.3" d="M234.51 264.053H251.236V280.779H234.51z" transform="matrix(1,0,0,1,-143.820725,-294.176725) matrix(1.333333,0,0,1.333333,0,0) matrix(-1,0,0,1,485.746,297.058)" stroke="#221815"/></g><g><path fill="none" stroke-width="0.3" d="M144.434 166.46H161.16V183.186H144.434z" transform="matrix(1,0,0,1,-143.820725,-294.176725) matrix(1.333333,0,0,1.333333,0,0) matrix(-1,0,0,1,305.594,492.244)" stroke="#221815"/></g><g><path fill="none" stroke-width="0.3" d="M144.434 183.186H161.16V199.912H144.434z" transform="matrix(1,0,0,1,-143.820725,-294.176725) matrix(1.333333,0,0,1.333333,0,0) matrix(-1,0,0,1,305.594,458.792)" stroke="#221815"/></g><g><path fill="none" stroke-width="0.3" d="M401.777 194.327H435.23V230.567H401.777z" transform="matrix(1,0,0,1,-143.820725,-294.176725) matrix(1.333333,0,0,1.333333,0,0) matrix(1,0,0,1,0,416.996)" stroke="#221815"/></g><g><path fill="none" stroke-width="0.3" d="M401.777 364.408H435.23V397.861H401.777z" transform="matrix(1,0,0,1,-143.820725,-294.176725) matrix(1.333333,0,0,1.333333,0,0) matrix(1,0,0,1,0,79.621)" stroke="#221815"/></g><g><path fill="none" stroke-width="0.3" d="M401.777 414.575H435.23V448.028H401.777z" transform="matrix(1,0,0,1,-143.820725,-294.176725) matrix(1.333333,0,0,1.333333,0,0) matrix(1,0,0,1,0,-20.713)" stroke="#221815"/></g><g><path fill="none" stroke-width="0.3" d="M456.095 506.551H489.548V540.004H456.095z" transform="matrix(1,0,0,1,-143.820725,-294.176725) matrix(1.333333,0,0,1.333333,0,0) matrix(1,0,0,1,0,-204.665)" stroke="#221815"/></g><g><path fill="none" stroke-width="0.3" d="M334.871 414.575H368.32399999999996V448.028H334.871z" transform="matrix(1,0,0,1,-143.820725,-294.176725) matrix(1.333333,0,0,1.333333,0,0) matrix(1,0,0,1,0,-20.713)" stroke="#221815"/></g><g><path fill="none" stroke-width="0.3" d="M334.871 464.743H401.77599999999995V498.196H334.871z" transform="matrix(1,0,0,1,-143.820725,-294.176725) matrix(1.333333,0,0,1.333333,0,0) matrix(1,0,0,1,0,-121.049)" stroke="#221815"/></g><g><path fill="none" stroke-width="0.3" d="M144.433 133.007H177.886V166.46H144.433z" transform="matrix(1,0,0,1,-143.820725,-294.176725) matrix(1.333333,0,0,1.333333,0,0) matrix(1,0,0,1,0,542.423)" stroke="#221815"/></g><g><path fill="none" stroke-width="0.3" d="M472.825 241.733H489.551V258.459H472.825z" transform="matrix(1,0,0,1,-143.820725,-294.176725) matrix(1.333333,0,0,1.333333,0,0) matrix(-1,0,0,1,962.376,341.698)" stroke="#221815"/></g><g><path fill="none" stroke-width="0.3" d="M456.099 241.733H472.825V258.459H456.099z" transform="matrix(1,0,0,1,-143.820725,-294.176725) matrix(1.333333,0,0,1.333333,0,0) matrix(-1,0,0,1,928.924,341.698)" stroke="#221815"/></g><g><path fill="none" stroke-width="0.3" d="M472.825 258.459H489.551V275.185H472.825z" transform="matrix(1,0,0,1,-143.820725,-294.176725) matrix(1.333333,0,0,1.333333,0,0) matrix(-1,0,0,1,962.376,308.246)" stroke="#221815"/></g><g><path fill="none" stroke-width="0.3" d="M472.825 275.185H489.551V291.911H472.825z" transform="matrix(1,0,0,1,-143.820725,-294.176725) matrix(1.333333,0,0,1.333333,0,0) matrix(-1,0,0,1,962.376,274.794)" stroke="#221815"/></g><g><path fill="none" stroke-width="0.3" d="M510.192 420.148H526.918V436.874H510.192z" transform="matrix(1,0,0,1,-143.820725,-294.176725) matrix(1.333333,0,0,1.333333,0,0) matrix(-1,0,0,1,1037.11,-15.132)" stroke="#221815"/></g><g><path fill="none" stroke-width="0.3" d="M510.192 436.874H526.918V453.6H510.192z" transform="matrix(1,0,0,1,-143.820725,-294.176725) matrix(1.333333,0,0,1.333333,0,0) matrix(-1,0,0,1,1037.11,-48.584)" stroke="#221815"/></g><g><path fill="none" stroke-width="0.3" d="M472.821 473.098H489.547V489.824H472.821z" transform="matrix(1,0,0,1,-143.820725,-294.176725) matrix(1.333333,0,0,1.333333,0,0) matrix(-1,0,0,1,962.368,-121.032)" stroke="#221815"/></g><g><path fill="none" stroke-width="0.3" d="M385.051 514.945H401.777V531.671H385.051z" transform="matrix(1,0,0,1,-143.820725,-294.176725) matrix(1.333333,0,0,1.333333,0,0) matrix(-1,0,0,1,786.828,-204.726)" stroke="#221815"/></g><g><path fill="none" stroke-width="0.3" d="M472.821 489.824H489.547V506.55H472.821z" transform="matrix(1,0,0,1,-143.820725,-294.176725) matrix(1.333333,0,0,1.333333,0,0) matrix(-1,0,0,1,962.368,-154.484)" stroke="#221815"/></g><g><path fill="none" stroke-width="0.3" d="M456.099 258.459H472.825V275.185H456.099z" transform="matrix(1,0,0,1,-143.820725,-294.176725) matrix(1.333333,0,0,1.333333,0,0) matrix(-1,0,0,1,928.924,308.246)" stroke="#221815"/></g><g><path fill="none" stroke-width="0.3" d="M456.099 275.185H472.825V291.911H456.099z" transform="matrix(1,0,0,1,-143.820725,-294.176725) matrix(1.333333,0,0,1.333333,0,0) matrix(-1,0,0,1,928.924,274.794)" stroke="#221815"/></g><g><path fill="none" stroke-width="0.3" d="M472.825 291.912H489.551V325.365H472.825z" transform="matrix(1,0,0,1,-143.820725,-294.176725) matrix(1.333333,0,0,1.333333,0,0) matrix(1,0,0,1,0,224.613)" stroke="#221815"/></g><g><path fill="none" stroke-width="0.3" d="M510.192 511.511H526.918V544.964H510.192z" transform="matrix(1,0,0,1,-143.820725,-294.176725) matrix(1.333333,0,0,1.333333,0,0) matrix(1,0,0,1,0,-214.585)" stroke="#221815"/></g><g><path fill="none" stroke-width="0.3" d="M348.561 563.98H382.014V580.706H348.561z" transform="matrix(1,0,0,1,-143.820725,-294.176725) matrix(1.333333,0,0,1.333333,0,0) matrix(1,0,0,1,0,-302.796)" stroke="#221815"/></g><g><path fill="none" stroke-width="0.3" d="M456.099 291.912H472.825V325.365H456.099z" transform="matrix(1,0,0,1,-143.820725,-294.176725) matrix(1.333333,0,0,1.333333,0,0) matrix(1,0,0,1,0,224.613)" stroke="#221815"/></g><g><path fill="none" stroke-width="0.3" d="M334.871 247.327H368.32399999999996V264.053H334.871z" transform="matrix(1,0,0,1,-143.820725,-294.176725) matrix(1.333333,0,0,1.333333,0,0) matrix(-1,0,0,1,703.195,330.51)" stroke="#221815"/></g><g><path fill="none" stroke-width="0.3" d="M267.962 213.85H301.41499999999996V230.576H267.962z" transform="matrix(1,0,0,1,-143.820725,-294.176725) matrix(1.333333,0,0,1.333333,0,0) matrix(-1,0,0,1,569.377,397.464)" stroke="#221815"/></g><g><path fill="none" stroke-width="0.3" d="M251.235 264.053H284.688V280.779H251.235z" transform="matrix(1,0,0,1,-143.820725,-294.176725) matrix(1.333333,0,0,1.333333,0,0) matrix(-1,0,0,1,535.923,297.058)" stroke="#221815"/></g><g><path fill="none" stroke-width="0.3" d="M234.509 247.327H301.414V264.053H234.509z" transform="matrix(1,0,0,1,-143.820725,-294.176725) matrix(1.333333,0,0,1.333333,0,0) matrix(1,0,0,1,0,330.51)" stroke="#221815"/></g><g><path fill="none" stroke-width="0.3" d="M334.871 364.408H401.77599999999995V381.134H334.871z" transform="matrix(1,0,0,1,-143.820725,-294.176725) matrix(1.333333,0,0,1.333333,0,0) matrix(1,0,0,1,0,96.348)" stroke="#221815"/></g><g><path fill="none" stroke-width="0.3" d="M456.095 364.408H472.821V431.313H456.095z" transform="matrix(1,0,0,1,-143.820725,-294.176725) matrix(1.333333,0,0,1.333333,0,0) matrix(1,0,0,1,0,46.169)" stroke="#221815"/></g><g><path fill="none" stroke-width="0.3" d="M-25.089 8.363H8.364000000000004V25.089H-25.089z" transform="matrix(1,0,0,1,-143.820725,-294.176725) matrix(1.333333,0,0,1.333333,0,0) matrix(0,-1,-1,0,186.2493,650.3408)" stroke="#221815"/></g><g><path fill="none" stroke-width="0.3" d="M-25.089 8.363H8.364000000000004V25.089H-25.089z" transform="matrix(1,0,0,1,-143.820725,-294.176725) matrix(1.333333,0,0,1.333333,0,0) matrix(0,-1,-1,0,186.2493,616.8881)" stroke="#221815"/></g><g><path fill="none" stroke-width="0.3" d="M-25.089 8.363H8.364000000000004V25.089H-25.089z" transform="matrix(1,0,0,1,-143.820725,-294.176725) matrix(1.333333,0,0,1.333333,0,0) matrix(0,-1,-1,0,169.523,616.8881)" stroke="#221815"/></g><g><path fill="none" stroke-width="0.3" d="M-25.089 8.363H8.364000000000004V25.089H-25.089z" transform="matrix(1,0,0,1,-143.820725,-294.176725) matrix(1.333333,0,0,1.333333,0,0) matrix(0,-1,-1,0,134.4731,669.8442)" stroke="#221815"/></g><g><path fill="none" stroke-width="0.3" d="M-25.089 8.363H8.364000000000004V25.089H-25.089z" transform="matrix(1,0,0,1,-143.820725,-294.176725) matrix(1.333333,0,0,1.333333,0,0) matrix(0,-1,-1,0,134.4731,636.3916)" stroke="#221815"/></g><g><path fill="none" stroke-width="0.3" d="M-25.089 8.363H8.364000000000004V25.089H-25.089z" transform="matrix(1,0,0,1,-143.820725,-294.176725) matrix(1.333333,0,0,1.333333,0,0) matrix(0,-1,-1,0,134.4731,602.9389)" stroke="#221815"/></g><g><path fill="none" stroke-width="0.3" d="M234.509 213.85H267.962V230.576H234.509z" transform="matrix(1,0,0,1,-143.820725,-294.176725) matrix(1.333333,0,0,1.333333,0,0) matrix(-1,0,0,1,502.471,397.464)" stroke="#221815"/></g><g><path fill="none" stroke-width="0.3" d="M201.063 247.327H234.516V264.053H201.063z" transform="matrix(1,0,0,1,-143.820725,-294.176725) matrix(1.333333,0,0,1.333333,0,0) matrix(-1,0,0,1,435.579,330.51)" stroke="#221815"/></g><g><path fill="none" stroke-width="0.3" d="M201.063 264.053H234.516V280.779H201.063z" transform="matrix(1,0,0,1,-143.820725,-294.176725) matrix(1.333333,0,0,1.333333,0,0) matrix(-1,0,0,1,435.579,297.058)" stroke="#221815"/></g><g><path fill="none" stroke-width="0.3" d="M334.871 264.053H368.32399999999996V280.779H334.871z" transform="matrix(1,0,0,1,-143.820725,-294.176725) matrix(1.333333,0,0,1.333333,0,0) matrix(-1,0,0,1,703.195,297.058)" stroke="#221815"/></g><g><path fill="none" stroke-width="0.3" d="M368.324 414.575H401.77700000000004V431.301H368.324z" transform="matrix(1,0,0,1,-143.820725,-294.176725) matrix(1.333333,0,0,1.333333,0,0) matrix(-1,0,0,1,770.101,-3.986)" stroke="#221815"/></g><g><path fill="none" stroke-width="0.3" d="M267.962 397.861H301.41499999999996V414.587H267.962z" transform="matrix(1,0,0,1,-143.820725,-294.176725) matrix(1.333333,0,0,1.333333,0,0) matrix(-1,0,0,1,569.377,29.442)" stroke="#221815"/></g><g><path fill="none" stroke-width="0.3" d="M240.084 481.489H256.81V498.215H240.084z" transform="matrix(1,0,0,1,-143.820725,-294.176725) matrix(1.333333,0,0,1.333333,0,0) matrix(-1,0,0,1,496.894,-137.814)" stroke="#221815"/></g><g><path fill="none" stroke-width="0.3" d="M256.809 481.489H290.26200000000006V498.215H256.809z" transform="matrix(1,0,0,1,-143.820725,-294.176725) matrix(1.333333,0,0,1.333333,0,0) matrix(-1,0,0,1,547.071,-137.814)" stroke="#221815"/></g><g><path fill="none" stroke-width="0.3" d="M206.629 481.489H240.082V498.215H206.629z" transform="matrix(1,0,0,1,-143.820725,-294.176725) matrix(1.333333,0,0,1.333333,0,0) matrix(-1,0,0,1,446.711,-137.814)" stroke="#221815"/></g><g><path fill="none" stroke-width="0.3" d="M256.809 448.012H290.26200000000006V464.738H256.809z" transform="matrix(1,0,0,1,-143.820725,-294.176725) matrix(1.333333,0,0,1.333333,0,0) matrix(-1,0,0,1,547.071,-70.86)" stroke="#221815"/></g><g><path fill="none" stroke-width="0.3" d="M240.083 498.215H273.536V514.941H240.083z" transform="matrix(1,0,0,1,-143.820725,-294.176725) matrix(1.333333,0,0,1.333333,0,0) matrix(-1,0,0,1,513.619,-171.266)" stroke="#221815"/></g><g><path fill="none" stroke-width="0.3" d="M-25.089 8.363H8.364000000000004V25.089H-25.089z" transform="matrix(1,0,0,1,-143.820725,-294.176725) matrix(1.333333,0,0,1.333333,0,0) matrix(0,-1,-1,0,134.4575,360.3982)" stroke="#221815"/></g><g><path fill="none" stroke-width="0.3" d="M-20.907 4.181H4.181999999999999V20.907H-20.907z" transform="matrix(1,0,0,1,-143.820725,-294.176725) matrix(1.333333,0,0,1.333333,0,0) matrix(0,-1,-1,0,130.2911,314.4012)" stroke="#221815"/></g><g><path fill="none" stroke-width="0.3" d="M223.357 448.012H256.81V464.738H223.357z" transform="matrix(1,0,0,1,-143.820725,-294.176725) matrix(1.333333,0,0,1.333333,0,0) matrix(-1,0,0,1,480.167,-70.86)" stroke="#221815"/></g><g><path fill="none" stroke-width="0.3" d="M-25.089 8.363H8.364000000000004V25.089H-25.089z" transform="matrix(1,0,0,1,-143.820725,-294.176725) matrix(1.333333,0,0,1.333333,0,0) matrix(0,-1,-1,0,188.8026,452.3928)" stroke="#221815"/></g><g><path fill="none" stroke-width="0.3" d="M256.809 431.286H290.26200000000006V448.012H256.809z" transform="matrix(1,0,0,1,-143.820725,-294.176725) matrix(1.333333,0,0,1.333333,0,0) matrix(-1,0,0,1,547.071,-37.408)" stroke="#221815"/></g><g><path fill="none" stroke-width="0.3" d="M401.776 464.743H435.22900000000004V481.469H401.776z" transform="matrix(1,0,0,1,-143.820725,-294.176725) matrix(1.333333,0,0,1.333333,0,0) matrix(-1,0,0,1,837.005,-104.322)" stroke="#221815"/></g><g><path fill="none" stroke-width="0.3" d="M401.769 481.469H435.222V498.195H401.769z" transform="matrix(1,0,0,1,-143.820725,-294.176725) matrix(1.333333,0,0,1.333333,0,0) matrix(-1,0,0,1,836.991,-137.774)" stroke="#221815"/></g><g><path fill="none" stroke-width="0.3" d="M401.776 514.946H435.22900000000004V531.672H401.776z" transform="matrix(1,0,0,1,-143.820725,-294.176725) matrix(1.333333,0,0,1.333333,0,0) matrix(-1,0,0,1,837.005,-204.728)" stroke="#221815"/></g><g><path fill="none" stroke-width="0.3" d="M456.095 473.098H472.821V506.55100000000004H456.095z" transform="matrix(1,0,0,1,-143.820725,-294.176725) matrix(1.333333,0,0,1.333333,0,0) matrix(1,0,0,1,0,-137.759)" stroke="#221815"/></g><g><path fill="none" stroke-width="0.3" d="M368.324 264.053H401.77700000000004V280.779H368.324z" transform="matrix(1,0,0,1,-143.820725,-294.176725) matrix(1.333333,0,0,1.333333,0,0) matrix(-1,0,0,1,770.101,297.058)" stroke="#221815"/></g><g><path fill="none" stroke-width="0.3" d="M478.142 200.534H494.868V220.048H478.142z" transform="matrix(1,0,0,1,-143.820725,-294.176725) matrix(1.333333,0,0,1.333333,0,0) matrix(-1,0,0,1,973.01,421.308)" stroke="#221815"/></g><g><path fill="none" stroke-width="0.3" d="M513.029 312.065H526.968V331.021H513.029z" transform="matrix(1,0,0,1,-143.820725,-294.176725) matrix(1.333333,0,0,1.333333,0,0) matrix(-1,0,0,1,1039.997,198.804)" stroke="#221815"/></g><g><path fill="none" stroke-width="0.3" d="M109.384 531.671H126.11V545.61H109.384z" transform="matrix(1,0,0,1,-143.820725,-294.176725) matrix(1.333333,0,0,1.333333,0,0) matrix(-1,0,0,1,235.494,-235.391)" stroke="#221815"/></g><g><path fill="none" stroke-width="0.3" d="M109.384 307.534H126.11V330.951H109.384z" transform="matrix(1,0,0,1,-143.820725,-294.176725) matrix(1.333333,0,0,1.333333,0,0) matrix(-1,0,0,1,235.494,203.405)" stroke="#221815"/></g><g><path fill="none" stroke-width="0.3" d="M109.384 258.47H126.11V307.53400000000005H109.384z" transform="matrix(1,0,0,1,-143.820725,-294.176725) matrix(1.333333,0,0,1.333333,0,0) matrix(-1,0,0,1,235.494,275.886)" stroke="#221815"/></g><g><path fill="none" stroke-width="0.3" d="M404.564 531.672H418.50300000000004V541.15H404.564z" transform="matrix(1,0,0,1,-143.820725,-294.176725) matrix(1.333333,0,0,1.333333,0,0) matrix(-1,0,0,1,823.067,-230.932)" stroke="#221815"/></g><g><path fill="none" stroke-width="0.3" d="M418.5 531.672H432.439V541.15H418.5z" transform="matrix(1,0,0,1,-143.820725,-294.176725) matrix(1.333333,0,0,1.333333,0,0) matrix(-1,0,0,1,850.939,-230.932)" stroke="#221815"/></g><g><path fill="none" stroke-width="0.3" d="M390.625 531.672H404.564V541.15H390.625z" transform="matrix(1,0,0,1,-143.820725,-294.176725) matrix(1.333333,0,0,1.333333,0,0) matrix(-1,0,0,1,795.189,-230.932)" stroke="#221815"/></g><g><path fill="none" stroke-width="0.3" d="M376.687 531.672H390.62600000000003V541.15H376.687z" transform="matrix(1,0,0,1,-143.820725,-294.176725) matrix(1.333333,0,0,1.333333,0,0) matrix(-1,0,0,1,767.313,-230.932)" stroke="#221815"/></g><g><path fill="none" stroke-width="0.3" d="M362.748 531.672H376.687V541.15H362.748z" transform="matrix(1,0,0,1,-143.820725,-294.176725) matrix(1.333333,0,0,1.333333,0,0) matrix(-1,0,0,1,739.435,-230.932)" stroke="#221815"/></g><g><path fill="none" stroke-width="0.3" d="M334.871 531.672H362.748V541.15H334.871z" transform="matrix(1,0,0,1,-143.820725,-294.176725) matrix(1.333333,0,0,1.333333,0,0) matrix(1,0,0,1,0,-230.932)" stroke="#221815"/></g><g><path fill="none" stroke-width="0.3" d="M273.537 531.656H301.414V541.1339999999999H273.537z" transform="matrix(1,0,0,1,-143.820725,-294.176725) matrix(1.333333,0,0,1.333333,0,0) matrix(1,0,0,1,0,-230.9)" stroke="#221815"/></g><g><path fill="none" stroke-width="0.3" d="M412.919 87.301H426.858V96.779H412.919z" transform="matrix(1,0,0,1,-143.820725,-294.176725) matrix(1.333333,0,0,1.333333,0,0) matrix(-1,0,0,1,839.777,657.81)" stroke="#221815"/></g><g><path fill="none" stroke-width="0.3" d="M412.919 96.779H426.858V106.25699999999999H412.919z" transform="matrix(1,0,0,1,-143.820725,-294.176725) matrix(1.333333,0,0,1.333333,0,0) matrix(-1,0,0,1,839.777,638.854)" stroke="#221815"/></g><g><path fill="none" stroke-width="0.3" d="M398.981 87.301H412.92V96.779H398.981z" transform="matrix(1,0,0,1,-143.820725,-294.176725) matrix(1.333333,0,0,1.333333,0,0) matrix(-1,0,0,1,811.901,657.81)" stroke="#221815"/></g><g><path fill="none" stroke-width="0.3" d="M398.981 96.779H412.92V106.25699999999999H398.981z" transform="matrix(1,0,0,1,-143.820725,-294.176725) matrix(1.333333,0,0,1.333333,0,0) matrix(-1,0,0,1,811.901,638.854)" stroke="#221815"/></g><g><path fill="none" stroke-width="0.3" d="M385.042 87.301H398.981V96.779H385.042z" transform="matrix(1,0,0,1,-143.820725,-294.176725) matrix(1.333333,0,0,1.333333,0,0) matrix(-1,0,0,1,784.023,657.81)" stroke="#221815"/></g><g><path fill="none" stroke-width="0.3" d="M385.042 96.779H398.981V106.25699999999999H385.042z" transform="matrix(1,0,0,1,-143.820725,-294.176725) matrix(1.333333,0,0,1.333333,0,0) matrix(-1,0,0,1,784.023,638.854)" stroke="#221815"/></g><g><path fill="none" stroke-width="0.3" d="M371.103 87.301H385.04200000000003V96.779H371.103z" transform="matrix(1,0,0,1,-143.820725,-294.176725) matrix(1.333333,0,0,1.333333,0,0) matrix(-1,0,0,1,756.145,657.81)" stroke="#221815"/></g><g><path fill="none" stroke-width="0.3" d="M371.103 96.779H385.04200000000003V106.25699999999999H371.103z" transform="matrix(1,0,0,1,-143.820725,-294.176725) matrix(1.333333,0,0,1.333333,0,0) matrix(-1,0,0,1,756.145,638.854)" stroke="#221815"/></g><g><path fill="none" stroke-width="0.3" d="M178.75 87.301H192.689V96.779H178.75z" transform="matrix(1,0,0,1,-143.820725,-294.176725) matrix(1.333333,0,0,1.333333,0,0) matrix(-1,0,0,1,371.439,657.81)" stroke="#221815"/></g><g><path fill="none" stroke-width="0.3" d="M178.75 96.779H192.689V106.25699999999999H178.75z" transform="matrix(1,0,0,1,-143.820725,-294.176725) matrix(1.333333,0,0,1.333333,0,0) matrix(-1,0,0,1,371.439,638.854)" stroke="#221815"/></g><g><path fill="none" stroke-width="0.3" d="M206.629 531.656H231.721V550.612H206.629z" transform="matrix(1,0,0,1,-143.820725,-294.176725) matrix(1.333333,0,0,1.333333,0,0) matrix(1,0,0,1,0,-240.378)" stroke="#221815"/></g><g><path fill="none" stroke-width="0.3" d="M279.121 87.301H293.06V106.257H279.121z" transform="matrix(1,0,0,1,-143.820725,-294.176725) matrix(1.333333,0,0,1.333333,0,0) matrix(1,0,0,1,0,648.332)" stroke="#221815"/></g><g><path fill="none" stroke-width="0.3" d="M164.811 87.301H178.75V96.779H164.811z" transform="matrix(1,0,0,1,-143.820725,-294.176725) matrix(1.333333,0,0,1.333333,0,0) matrix(-1,0,0,1,343.561,657.81)" stroke="#221815"/></g><g><path fill="none" stroke-width="0.3" d="M164.811 96.779H178.75V106.25699999999999H164.811z" transform="matrix(1,0,0,1,-143.820725,-294.176725) matrix(1.333333,0,0,1.333333,0,0) matrix(-1,0,0,1,343.561,638.854)" stroke="#221815"/></g><g><path fill="none" stroke-width="0.3" d="M150.873 87.301H164.81199999999998V96.779H150.873z" transform="matrix(1,0,0,1,-143.820725,-294.176725) matrix(1.333333,0,0,1.333333,0,0) matrix(-1,0,0,1,315.685,657.81)" stroke="#221815"/></g><g><path fill="none" stroke-width="0.3" d="M150.873 96.779H164.81199999999998V106.25699999999999H150.873z" transform="matrix(1,0,0,1,-143.820725,-294.176725) matrix(1.333333,0,0,1.333333,0,0) matrix(-1,0,0,1,315.685,638.854)" stroke="#221815"/></g><g><path fill="none" stroke-width="0.3" d="M237.304 96.779H251.243V106.25699999999999H237.304z" transform="matrix(1,0,0,1,-143.820725,-294.176725) matrix(1.333333,0,0,1.333333,0,0) matrix(-1,0,0,1,488.547,638.854)" stroke="#221815"/></g><g><path fill="none" stroke-width="0.3" d="M223.366 96.779H237.305V106.25699999999999H223.366z" transform="matrix(1,0,0,1,-143.820725,-294.176725) matrix(1.333333,0,0,1.333333,0,0) matrix(-1,0,0,1,460.671,638.854)" stroke="#221815"/></g><g><path fill="none" stroke-width="0.3" d="M209.427 96.779H223.36599999999999V106.25699999999999H209.427z" transform="matrix(1,0,0,1,-143.820725,-294.176725) matrix(1.333333,0,0,1.333333,0,0) matrix(-1,0,0,1,432.793,638.854)" stroke="#221815"/></g><g><path fill="none" stroke-width="0.3" d="M136.934 87.301H150.873V96.779H136.934z" transform="matrix(1,0,0,1,-143.820725,-294.176725) matrix(1.333333,0,0,1.333333,0,0) matrix(-1,0,0,1,287.807,657.81)" stroke="#221815"/></g><g><path fill="none" stroke-width="0.3" d="M136.934 96.779H150.873V106.25699999999999H136.934z" transform="matrix(1,0,0,1,-143.820725,-294.176725) matrix(1.333333,0,0,1.333333,0,0) matrix(-1,0,0,1,287.807,638.854)" stroke="#221815"/></g><g><path fill="none" stroke-width="0.3" d="M122.996 87.301H136.935V96.779H122.996z" transform="matrix(1,0,0,1,-143.820725,-294.176725) matrix(1.333333,0,0,1.333333,0,0) matrix(-1,0,0,1,259.931,657.81)" stroke="#221815"/></g><g><path fill="none" stroke-width="0.3" d="M122.996 96.779H136.935V106.25699999999999H122.996z" transform="matrix(1,0,0,1,-143.820725,-294.176725) matrix(1.333333,0,0,1.333333,0,0) matrix(-1,0,0,1,259.931,638.854)" stroke="#221815"/></g><g><path fill="none" stroke-width="0.3" d="M259.598 125.754H273.53700000000003V135.232H259.598z" transform="matrix(1,0,0,1,-143.820725,-294.176725) matrix(1.333333,0,0,1.333333,0,0) matrix(-1,0,0,1,533.135,580.904)" stroke="#221815"/></g><g><path fill="none" stroke-width="0.3" d="M259.598 135.233H273.53700000000003V144.711H259.598z" transform="matrix(1,0,0,1,-143.820725,-294.176725) matrix(1.333333,0,0,1.333333,0,0) matrix(-1,0,0,1,533.135,561.946)" stroke="#221815"/></g><g><path fill="none" stroke-width="0.3" d="M245.66 125.754H259.599V135.232H245.66z" transform="matrix(1,0,0,1,-143.820725,-294.176725) matrix(1.333333,0,0,1.333333,0,0) matrix(-1,0,0,1,505.259,580.904)" stroke="#221815"/></g><g><path fill="none" stroke-width="0.3" d="M245.66 135.233H259.599V144.711H245.66z" transform="matrix(1,0,0,1,-143.820725,-294.176725) matrix(1.333333,0,0,1.333333,0,0) matrix(-1,0,0,1,505.259,561.946)" stroke="#221815"/></g><g><path fill="none" stroke-width="0.3" d="M231.721 125.754H245.66V135.232H231.721z" transform="matrix(1,0,0,1,-143.820725,-294.176725) matrix(1.333333,0,0,1.333333,0,0) matrix(-1,0,0,1,477.381,580.904)" stroke="#221815"/></g><g><path fill="none" stroke-width="0.3" d="M231.721 135.233H245.66V144.711H231.721z" transform="matrix(1,0,0,1,-143.820725,-294.176725) matrix(1.333333,0,0,1.333333,0,0) matrix(-1,0,0,1,477.381,561.946)" stroke="#221815"/></g><g><path fill="none" stroke-width="0.3" d="M217.783 125.754H231.72199999999998V135.232H217.783z" transform="matrix(1,0,0,1,-143.820725,-294.176725) matrix(1.333333,0,0,1.333333,0,0) matrix(-1,0,0,1,449.505,580.904)" stroke="#221815"/></g><g><path fill="none" stroke-width="0.3" d="M217.783 135.233H231.72199999999998V144.711H217.783z" transform="matrix(1,0,0,1,-143.820725,-294.176725) matrix(1.333333,0,0,1.333333,0,0) matrix(-1,0,0,1,449.505,561.946)" stroke="#221815"/></g><g><path fill="none" stroke-width="0.3" d="M203.844 125.754H217.783V135.232H203.844z" transform="matrix(1,0,0,1,-143.820725,-294.176725) matrix(1.333333,0,0,1.333333,0,0) matrix(-1,0,0,1,421.627,580.904)" stroke="#221815"/></g><g><path fill="none" stroke-width="0.3" d="M203.844 135.233H217.783V144.711H203.844z" transform="matrix(1,0,0,1,-143.820725,-294.176725) matrix(1.333333,0,0,1.333333,0,0) matrix(-1,0,0,1,421.627,561.946)" stroke="#221815"/></g><g><path fill="none" stroke-width="0.3" d="M287.476 161.437H301.415V170.91500000000002H287.476z" transform="matrix(1,0,0,1,-143.820725,-294.176725) matrix(1.333333,0,0,1.333333,0,0) matrix(-1,0,0,1,588.891,509.538)" stroke="#221815"/></g><g><path fill="none" stroke-width="0.3" d="M287.476 170.915H301.415V180.393H287.476z" transform="matrix(1,0,0,1,-143.820725,-294.176725) matrix(1.333333,0,0,1.333333,0,0) matrix(-1,0,0,1,588.891,490.582)" stroke="#221815"/></g><g><path fill="none" stroke-width="0.3" d="M273.537 161.437H287.476V170.91500000000002H273.537z" transform="matrix(1,0,0,1,-143.820725,-294.176725) matrix(1.333333,0,0,1.333333,0,0) matrix(-1,0,0,1,561.013,509.538)" stroke="#221815"/></g><g><path fill="none" stroke-width="0.3" d="M273.537 170.915H287.476V180.393H273.537z" transform="matrix(1,0,0,1,-143.820725,-294.176725) matrix(1.333333,0,0,1.333333,0,0) matrix(-1,0,0,1,561.013,490.582)" stroke="#221815"/></g><g><path fill="none" stroke-width="0.3" d="M259.598 161.437H273.53700000000003V170.91500000000002H259.598z" transform="matrix(1,0,0,1,-143.820725,-294.176725) matrix(1.333333,0,0,1.333333,0,0) matrix(-1,0,0,1,533.135,509.538)" stroke="#221815"/></g><g><path fill="none" stroke-width="0.3" d="M259.598 170.915H273.53700000000003V180.393H259.598z" transform="matrix(1,0,0,1,-143.820725,-294.176725) matrix(1.333333,0,0,1.333333,0,0) matrix(-1,0,0,1,533.135,490.582)" stroke="#221815"/></g><g><path fill="none" stroke-width="0.3" d="M245.66 161.437H259.599V170.91500000000002H245.66z" transform="matrix(1,0,0,1,-143.820725,-294.176725) matrix(1.333333,0,0,1.333333,0,0) matrix(-1,0,0,1,505.259,509.538)" stroke="#221815"/></g><g><path fill="none" stroke-width="0.3" d="M245.66 170.915H259.599V180.393H245.66z" transform="matrix(1,0,0,1,-143.820725,-294.176725) matrix(1.333333,0,0,1.333333,0,0) matrix(-1,0,0,1,505.259,490.582)" stroke="#221815"/></g><g><path fill="none" stroke-width="0.3" d="M259.598 531.656H273.53700000000003V541.1339999999999H259.598z" transform="matrix(1,0,0,1,-143.820725,-294.176725) matrix(1.333333,0,0,1.333333,0,0) matrix(-1,0,0,1,533.135,-230.9)" stroke="#221815"/></g><g><path fill="none" stroke-width="0.3" d="M259.598 541.134H273.53700000000003V550.612H259.598z" transform="matrix(1,0,0,1,-143.820725,-294.176725) matrix(1.333333,0,0,1.333333,0,0) matrix(-1,0,0,1,533.135,-249.856)" stroke="#221815"/></g><g><path fill="none" stroke-width="0.3" d="M245.66 531.656H259.599V541.1339999999999H245.66z" transform="matrix(1,0,0,1,-143.820725,-294.176725) matrix(1.333333,0,0,1.333333,0,0) matrix(-1,0,0,1,505.259,-230.9)" stroke="#221815"/></g><g><path fill="none" stroke-width="0.3" d="M245.66 541.134H259.599V550.612H245.66z" transform="matrix(1,0,0,1,-143.820725,-294.176725) matrix(1.333333,0,0,1.333333,0,0) matrix(-1,0,0,1,505.259,-249.856)" stroke="#221815"/></g><g><path fill="none" stroke-width="0.3" d="M287.476 541.134H301.415V550.612H287.476z" transform="matrix(1,0,0,1,-143.820725,-294.176725) matrix(1.333333,0,0,1.333333,0,0) matrix(-1,0,0,1,588.891,-249.856)" stroke="#221815"/></g><g><path fill="none" stroke-width="0.3" d="M273.537 541.134H287.476V550.612H273.537z" transform="matrix(1,0,0,1,-143.820725,-294.176725) matrix(1.333333,0,0,1.333333,0,0) matrix(-1,0,0,1,561.013,-249.856)" stroke="#221815"/></g><g><path fill="none" stroke-width="0.3" d="M231.721 531.656H245.66V541.1339999999999H231.721z" transform="matrix(1,0,0,1,-143.820725,-294.176725) matrix(1.333333,0,0,1.333333,0,0) matrix(-1,0,0,1,477.381,-230.9)" stroke="#221815"/></g><g><path fill="none" stroke-width="0.3" d="M231.721 541.134H245.66V550.612H231.721z" transform="matrix(1,0,0,1,-143.820725,-294.176725) matrix(1.333333,0,0,1.333333,0,0) matrix(-1,0,0,1,477.381,-249.856)" stroke="#221815"/></g><g><path fill="none" stroke-width="0.3" d="M231.721 161.437H245.66V170.91500000000002H231.721z" transform="matrix(1,0,0,1,-143.820725,-294.176725) matrix(1.333333,0,0,1.333333,0,0) matrix(-1,0,0,1,477.381,509.538)" stroke="#221815"/></g><g><path fill="none" stroke-width="0.3" d="M231.721 170.915H245.66V180.393H231.721z" transform="matrix(1,0,0,1,-143.820725,-294.176725) matrix(1.333333,0,0,1.333333,0,0) matrix(-1,0,0,1,477.381,490.582)" stroke="#221815"/></g><g><path fill="none" stroke-width="0.3" d="M217.783 161.437H231.72199999999998V170.91500000000002H217.783z" transform="matrix(1,0,0,1,-143.820725,-294.176725) matrix(1.333333,0,0,1.333333,0,0) matrix(-1,0,0,1,449.505,509.538)" stroke="#221815"/></g><g><path fill="none" stroke-width="0.3" d="M217.783 170.915H231.72199999999998V180.393H217.783z" transform="matrix(1,0,0,1,-143.820725,-294.176725) matrix(1.333333,0,0,1.333333,0,0) matrix(-1,0,0,1,449.505,490.582)" stroke="#221815"/></g><g><path fill="none" stroke-width="0.3" d="M203.844 161.437H217.783V170.91500000000002H203.844z" transform="matrix(1,0,0,1,-143.820725,-294.176725) matrix(1.333333,0,0,1.333333,0,0) matrix(-1,0,0,1,421.627,509.538)" stroke="#221815"/></g><g><path fill="none" stroke-width="0.3" d="M203.844 170.915H217.783V180.393H203.844z" transform="matrix(1,0,0,1,-143.820725,-294.176725) matrix(1.333333,0,0,1.333333,0,0) matrix(-1,0,0,1,421.627,490.582)" stroke="#221815"/></g><g><path fill="none" stroke-width="0.3" d="M343.227 87.301H371.104V96.779H343.227z" transform="matrix(1,0,0,1,-143.820725,-294.176725) matrix(1.333333,0,0,1.333333,0,0) matrix(1,0,0,1,0,657.81)" stroke="#221815"/></g><g><path fill="none" stroke-width="0.3" d="M334.871 122.988H376.687V132.466H334.871z" transform="matrix(1,0,0,1,-143.820725,-294.176725) matrix(1.333333,0,0,1.333333,0,0) matrix(1,0,0,1,0,586.436)" stroke="#221815"/></g><g><path fill="none" stroke-width="0.3" d="M251.243 96.779H279.12V106.25699999999999H251.243z" transform="matrix(1,0,0,1,-143.820725,-294.176725) matrix(1.333333,0,0,1.333333,0,0) matrix(1,0,0,1,0,638.854)" stroke="#221815"/></g><g><path fill="none" stroke-width="0.3" d="M273.537 125.754H301.414V135.232H273.537z" transform="matrix(1,0,0,1,-143.820725,-294.176725) matrix(1.333333,0,0,1.333333,0,0) matrix(1,0,0,1,0,580.904)" stroke="#221815"/></g><g><path fill="none" stroke-width="0.3" d="M273.537 135.233H301.414V144.711H273.537z" transform="matrix(1,0,0,1,-143.820725,-294.176725) matrix(1.333333,0,0,1.333333,0,0) matrix(1,0,0,1,0,561.946)" stroke="#221815"/></g><g><path fill="none" stroke-width="0.3" d="M357.165 96.779H371.10400000000004V106.25699999999999H357.165z" transform="matrix(1,0,0,1,-143.820725,-294.176725) matrix(1.333333,0,0,1.333333,0,0) matrix(-1,0,0,1,728.269,638.854)" stroke="#221815"/></g><g><path fill="none" stroke-width="0.3" d="M343.226 96.779H357.165V106.25699999999999H343.226z" transform="matrix(1,0,0,1,-143.820725,-294.176725) matrix(1.333333,0,0,1.333333,0,0) matrix(-1,0,0,1,700.391,638.854)" stroke="#221815"/></g><g><path fill="none" stroke-width="0.3" d="M223.366 87.301H237.305V96.779H223.366z" transform="matrix(1,0,0,1,-143.820725,-294.176725) matrix(1.333333,0,0,1.333333,0,0) matrix(-1,0,0,1,460.671,657.81)" stroke="#221815"/></g><g><path fill="none" stroke-width="0.3" d="M209.427 87.301H223.36599999999999V96.779H209.427z" transform="matrix(1,0,0,1,-143.820725,-294.176725) matrix(1.333333,0,0,1.333333,0,0) matrix(-1,0,0,1,432.793,657.81)" stroke="#221815"/></g><g><path fill="none" stroke-width="0.3" d="M251.243 87.301H279.12V96.779H251.243z" transform="matrix(1,0,0,1,-143.820725,-294.176725) matrix(1.333333,0,0,1.333333,0,0) matrix(1,0,0,1,0,657.81)" stroke="#221815"/></g><g><path fill="none" stroke-width="0.3" d="M0 0H9.478V27.877H0z" transform="matrix(1,0,0,1,-143.820725,-294.176725) matrix(1.333333,0,0,1.333333,0,0) matrix(1,0,0,1,468.6631,621.8421)" stroke="#221815"/></g><g><path fill="none" stroke-width="0.3" d="M348.81 132.466H362.749V141.94400000000002H348.81z" transform="matrix(1,0,0,1,-143.820725,-294.176725) matrix(1.333333,0,0,1.333333,0,0) matrix(-1,0,0,1,711.559,567.48)" stroke="#221815"/></g><g><path fill="none" stroke-width="0.3" d="M334.871 132.466H348.81V141.94400000000002H334.871z" transform="matrix(1,0,0,1,-143.820725,-294.176725) matrix(1.333333,0,0,1.333333,0,0) matrix(-1,0,0,1,683.681,567.48)" stroke="#221815"/></g><g><path fill="none" stroke-width="0.3" d="M432.448 122.988H446.387V132.466H432.448z" transform="matrix(1,0,0,1,-143.820725,-294.176725) matrix(1.333333,0,0,1.333333,0,0) matrix(-1,0,0,1,878.835,586.436)" stroke="#221815"/></g><g><path fill="none" stroke-width="0.3" d="M418.509 122.988H432.44800000000004V132.466H418.509z" transform="matrix(1,0,0,1,-143.820725,-294.176725) matrix(1.333333,0,0,1.333333,0,0) matrix(-1,0,0,1,850.957,586.436)" stroke="#221815"/></g><g><path fill="none" stroke-width="0.3" d="M404.571 122.988H418.51000000000005V132.466H404.571z" transform="matrix(1,0,0,1,-143.820725,-294.176725) matrix(1.333333,0,0,1.333333,0,0) matrix(-1,0,0,1,823.081,586.436)" stroke="#221815"/></g><g><path fill="none" stroke-width="0.3" d="M390.632 122.988H404.571V132.466H390.632z" transform="matrix(1,0,0,1,-143.820725,-294.176725) matrix(1.333333,0,0,1.333333,0,0) matrix(-1,0,0,1,795.203,586.436)" stroke="#221815"/></g><g><path fill="none" stroke-width="0.3" d="M376.687 122.988H390.62600000000003V132.466H376.687z" transform="matrix(1,0,0,1,-143.820725,-294.176725) matrix(1.333333,0,0,1.333333,0,0) matrix(-1,0,0,1,767.313,586.436)" stroke="#221815"/></g><g><path fill="none" stroke-width="0.3" d="M237.304 87.301H251.243V96.779H237.304z" transform="matrix(1,0,0,1,-143.820725,-294.176725) matrix(1.333333,0,0,1.333333,0,0) matrix(-1,0,0,1,488.547,657.81)" stroke="#221815"/></g><g><path fill="none" stroke-width="0.3" d="M432.448 132.466H446.387V141.94400000000002H432.448z" transform="matrix(1,0,0,1,-143.820725,-294.176725) matrix(1.333333,0,0,1.333333,0,0) matrix(-1,0,0,1,878.835,567.48)" stroke="#221815"/></g><g><path fill="none" stroke-width="0.3" d="M513.029 144.802H526.968V158.74099999999999H513.029z" transform="matrix(1,0,0,1,-143.820725,-294.176725) matrix(1.333333,0,0,1.333333,0,0) matrix(1,0,0,1,0,538.347)" stroke="#221815"/></g><g><path fill="none" stroke-width="0.3" d="M513.029 158.74H526.968V172.679H513.029z" transform="matrix(1,0,0,1,-143.820725,-294.176725) matrix(1.333333,0,0,1.333333,0,0) matrix(1,0,0,1,0,510.471)" stroke="#221815"/></g><g><path fill="none" stroke-width="0.3" d="M513.029 172.679H526.968V186.618H513.029z" transform="matrix(1,0,0,1,-143.820725,-294.176725) matrix(1.333333,0,0,1.333333,0,0) matrix(1,0,0,1,0,482.593)" stroke="#221815"/></g><g><path fill="none" stroke-width="0.3" d="M468.663 150.355H478.141V164.29399999999998H468.663z" transform="matrix(1,0,0,1,-143.820725,-294.176725) matrix(1.333333,0,0,1.333333,0,0) matrix(1,0,0,1,0,527.241)" stroke="#221815"/></g><g><path fill="none" stroke-width="0.3" d="M468.663 164.293H478.141V178.232H468.663z" transform="matrix(1,0,0,1,-143.820725,-294.176725) matrix(1.333333,0,0,1.333333,0,0) matrix(1,0,0,1,0,499.365)" stroke="#221815"/></g><g><path fill="none" stroke-width="0.3" d="M468.663 178.232H478.141V192.171H468.663z" transform="matrix(1,0,0,1,-143.820725,-294.176725) matrix(1.333333,0,0,1.333333,0,0) matrix(1,0,0,1,0,471.487)" stroke="#221815"/></g><g><path fill="none" stroke-width="0.3" d="M513.029 186.617H526.968V200.55599999999998H513.029z" transform="matrix(1,0,0,1,-143.820725,-294.176725) matrix(1.333333,0,0,1.333333,0,0) matrix(1,0,0,1,0,454.717)" stroke="#221815"/></g><g><path fill="none" stroke-width="0.3" d="M513.029 200.556H526.968V214.495H513.029z" transform="matrix(1,0,0,1,-143.820725,-294.176725) matrix(1.333333,0,0,1.333333,0,0) matrix(1,0,0,1,0,426.839)" stroke="#221815"/></g><g><path fill="none" stroke-width="0.3" d="M513.029 214.494H526.968V228.433H513.029z" transform="matrix(1,0,0,1,-143.820725,-294.176725) matrix(1.333333,0,0,1.333333,0,0) matrix(1,0,0,1,0,398.963)" stroke="#221815"/></g><g><path fill="none" stroke-width="0.3" d="M513.029 228.433H526.968V242.37199999999999H513.029z" transform="matrix(1,0,0,1,-143.820725,-294.176725) matrix(1.333333,0,0,1.333333,0,0) matrix(1,0,0,1,0,371.085)" stroke="#221815"/></g><g><path fill="none" stroke-width="0.3" d="M513.029 242.372H526.968V256.31100000000004H513.029z" transform="matrix(1,0,0,1,-143.820725,-294.176725) matrix(1.333333,0,0,1.333333,0,0) matrix(1,0,0,1,0,343.207)" stroke="#221815"/></g><g><path fill="none" stroke-width="0.3" d="M513.029 256.31H526.968V270.249H513.029z" transform="matrix(1,0,0,1,-143.820725,-294.176725) matrix(1.333333,0,0,1.333333,0,0) matrix(1,0,0,1,0,315.331)" stroke="#221815"/></g><g><path fill="none" stroke-width="0.3" d="M109.368 397.86H126.094V411.79900000000004H109.368z" transform="matrix(1,0,0,1,-143.820725,-294.176725) matrix(1.333333,0,0,1.333333,0,0) matrix(1,0,0,1,0,32.231)" stroke="#221815"/></g><g><path fill="none" stroke-width="0.3" d="M109.368 411.798H126.094V425.737H109.368z" transform="matrix(1,0,0,1,-143.820725,-294.176725) matrix(1.333333,0,0,1.333333,0,0) matrix(1,0,0,1,0,4.355)" stroke="#221815"/></g><g><path fill="none" stroke-width="0.3" d="M109.368 425.737H126.094V439.67600000000004H109.368z" transform="matrix(1,0,0,1,-143.820725,-294.176725) matrix(1.333333,0,0,1.333333,0,0) matrix(1,0,0,1,0,-23.523)" stroke="#221815"/></g><g><path fill="none" stroke-width="0.3" d="M513.029 270.249H526.968V284.18800000000005H513.029z" transform="matrix(1,0,0,1,-143.820725,-294.176725) matrix(1.333333,0,0,1.333333,0,0) matrix(1,0,0,1,0,287.453)" stroke="#221815"/></g><g><path fill="none" stroke-width="0.3" d="M513.029 284.187H526.968V298.12600000000003H513.029z" transform="matrix(1,0,0,1,-143.820725,-294.176725) matrix(1.333333,0,0,1.333333,0,0) matrix(1,0,0,1,0,259.577)" stroke="#221815"/></g><g><path fill="none" stroke-width="0.3" d="M513.029 298.126H526.968V312.065H513.029z" transform="matrix(1,0,0,1,-143.820725,-294.176725) matrix(1.333333,0,0,1.333333,0,0) matrix(1,0,0,1,0,231.699)" stroke="#221815"/></g><g><path fill="none" stroke-width="0.3" d="M510.192 364.394H526.792V392.271H510.192z" transform="matrix(1,0,0,1,-143.820725,-294.176725) matrix(1.333333,0,0,1.333333,0,0) matrix(1,0,0,1,0,85.225)" stroke="#221815"/></g><g><path fill="none" stroke-width="0.3" d="M510.192 392.27H526.792V406.209H510.192z" transform="matrix(1,0,0,1,-143.820725,-294.176725) matrix(1.333333,0,0,1.333333,0,0) matrix(1,0,0,1,0,43.411)" stroke="#221815"/></g><g><path fill="none" stroke-width="0.3" d="M510.192 406.209H526.792V420.148H510.192z" transform="matrix(1,0,0,1,-143.820725,-294.176725) matrix(1.333333,0,0,1.333333,0,0) matrix(1,0,0,1,0,15.533)" stroke="#221815"/></g><g><path fill="none" stroke-width="0.3" d="M418.509 132.466H432.44800000000004V141.94400000000002H418.509z" transform="matrix(1,0,0,1,-143.820725,-294.176725) matrix(1.333333,0,0,1.333333,0,0) matrix(-1,0,0,1,850.957,567.48)" stroke="#221815"/></g><g><path fill="none" stroke-width="0.3" d="M404.571 132.466H418.51000000000005V141.94400000000002H404.571z" transform="matrix(1,0,0,1,-143.820725,-294.176725) matrix(1.333333,0,0,1.333333,0,0) matrix(-1,0,0,1,823.081,567.48)" stroke="#221815"/></g><g><path fill="none" stroke-width="0.3" d="M390.632 132.466H404.571V141.94400000000002H390.632z" transform="matrix(1,0,0,1,-143.820725,-294.176725) matrix(1.333333,0,0,1.333333,0,0) matrix(-1,0,0,1,795.203,567.48)" stroke="#221815"/></g><g><path fill="none" stroke-width="0.3" d="M376.687 132.466H390.62600000000003V141.94400000000002H376.687z" transform="matrix(1,0,0,1,-143.820725,-294.176725) matrix(1.333333,0,0,1.333333,0,0) matrix(-1,0,0,1,767.313,567.48)" stroke="#221815"/></g><g><path fill="none" stroke-width="0.3" d="M432.448 158.675H446.387V168.15300000000002H432.448z" transform="matrix(1,0,0,1,-143.820725,-294.176725) matrix(1.333333,0,0,1.333333,0,0) matrix(-1,0,0,1,878.835,515.062)" stroke="#221815"/></g><g><path fill="none" stroke-width="0.3" d="M418.509 158.675H432.44800000000004V168.15300000000002H418.509z" transform="matrix(1,0,0,1,-143.820725,-294.176725) matrix(1.333333,0,0,1.333333,0,0) matrix(-1,0,0,1,850.957,515.062)" stroke="#221815"/></g><g><path fill="none" stroke-width="0.3" d="M404.571 158.675H418.51000000000005V168.15300000000002H404.571z" transform="matrix(1,0,0,1,-143.820725,-294.176725) matrix(1.333333,0,0,1.333333,0,0) matrix(-1,0,0,1,823.081,515.062)" stroke="#221815"/></g><g><path fill="none" stroke-width="0.3" d="M390.632 158.675H404.571V168.15300000000002H390.632z" transform="matrix(1,0,0,1,-143.820725,-294.176725) matrix(1.333333,0,0,1.333333,0,0) matrix(-1,0,0,1,795.203,515.062)" stroke="#221815"/></g><g><path fill="none" stroke-width="0.3" d="M376.687 158.675H390.62600000000003V168.15300000000002H376.687z" transform="matrix(1,0,0,1,-143.820725,-294.176725) matrix(1.333333,0,0,1.333333,0,0) matrix(-1,0,0,1,767.313,515.062)" stroke="#221815"/></g><g><path fill="none" stroke-width="0.3" d="M362.748 158.675H376.687V168.15300000000002H362.748z" transform="matrix(1,0,0,1,-143.820725,-294.176725) matrix(1.333333,0,0,1.333333,0,0) matrix(-1,0,0,1,739.435,515.062)" stroke="#221815"/></g><g><path fill="none" stroke-width="0.3" d="M432.448 168.153H446.387V177.631H432.448z" transform="matrix(1,0,0,1,-143.820725,-294.176725) matrix(1.333333,0,0,1.333333,0,0) matrix(-1,0,0,1,878.835,496.106)" stroke="#221815"/></g><g><path fill="none" stroke-width="0.3" d="M418.509 168.153H432.44800000000004V177.631H418.509z" transform="matrix(1,0,0,1,-143.820725,-294.176725) matrix(1.333333,0,0,1.333333,0,0) matrix(-1,0,0,1,850.957,496.106)" stroke="#221815"/></g><g><path fill="none" stroke-width="0.3" d="M404.571 168.153H418.51000000000005V177.631H404.571z" transform="matrix(1,0,0,1,-143.820725,-294.176725) matrix(1.333333,0,0,1.333333,0,0) matrix(-1,0,0,1,823.081,496.106)" stroke="#221815"/></g><g><path fill="none" stroke-width="0.3" d="M390.632 168.153H404.571V177.631H390.632z" transform="matrix(1,0,0,1,-143.820725,-294.176725) matrix(1.333333,0,0,1.333333,0,0) matrix(-1,0,0,1,795.203,496.106)" stroke="#221815"/></g><g><path fill="none" stroke-width="0.3" d="M376.687 168.153H390.62600000000003V177.631H376.687z" transform="matrix(1,0,0,1,-143.820725,-294.176725) matrix(1.333333,0,0,1.333333,0,0) matrix(-1,0,0,1,767.313,496.106)" stroke="#221815"/></g><g><path fill="none" stroke-width="0.3" d="M362.748 132.466H376.687V141.94400000000002H362.748z" transform="matrix(1,0,0,1,-143.820725,-294.176725) matrix(1.333333,0,0,1.333333,0,0) matrix(-1,0,0,1,739.435,567.48)" stroke="#221815"/></g><g><path fill="none" stroke-width="0.3" d="M426.858 87.301H448.947V106.24000000000001H426.858z" transform="matrix(1,0,0,1,-143.820725,-294.176725) matrix(1.333333,0,0,1.333333,0,0) matrix(-1,0,0,1,875.805,648.349)" stroke="#221815"/></g><g><path fill="none" stroke-width="0.3" d="M476.729 72.61H526.908V128.086H476.729z" transform="matrix(1,0,0,1,-143.820725,-294.176725) matrix(1.333333,0,0,1.333333,0,0) matrix(-1,0,0,1,1003.637,641.194)" stroke="#221815"/></g><g><path fill="none" stroke-width="0.3" d="M510.182 72.605H526.908V128.08100000000002H510.182z" transform="matrix(1,0,0,1,-143.820725,-294.176725) matrix(1.333333,0,0,1.333333,0,0) matrix(-1,0,0,1,1037.09,641.204)" stroke="#221815"/></g><g><path fill="none" stroke-width="0.3" d="M354.385 168.153H376.687V177.631H354.385z" transform="matrix(1,0,0,1,-143.820725,-294.176725) matrix(1.333333,0,0,1.333333,0,0) matrix(-1,0,0,1,731.072,496.106)" stroke="#221815"/></g><g><path fill="#e60012" stroke-width="0.56" d="M0,0L0,-9.478L-19.514,-9.478L-19.514,9.478L0,9.478L0,9.465L8.363,9.465L8.363,0L0,0Z" fill-rule="nonzero" transform="matrix(1,0,0,1,-143.820725,-294.176725) matrix(1.333333,0,0,1.333333,0,0) matrix(1,0,0,1,354.3854,673.7367)" stroke="#221815"/></g></g></g></svg>